<?xml version="1.0" encoding="utf-8"?>
<!-- Generator: Adobe Illustrator 27.5.0, SVG Export Plug-In . SVG Version: 6.00 Build 0)  -->
<svg version="1.1" xmlns="http://www.w3.org/2000/svg" xmlns:xlink="http://www.w3.org/1999/xlink" x="0px" y="0px"
	 viewBox="0 0 500 500" style="enable-background:new 0 0 500 500;" xml:space="preserve">
<g id="BACKGROUND">
	<g>
		<rect style="fill:#FFFCF5;" width="500" height="500"/>
		<g>
			<g>
				<path style="opacity:0.4;fill:#EFDBBF;" d="M134.019,439.315c-15.193-9.236-30.601-18.645-42.667-31.704
					c-12.066-13.059-20.563-30.486-18.961-48.193c1.82-20.113,15.864-36.77,23.085-55.63c11.002-28.736,5.633-60.998-2.33-90.72
					c-7.963-29.722-18.475-59.51-17.364-90.26c1.111-30.75,17.346-63.555,46.635-72.986c22.181-7.143,46.296,0.428,67.597,9.875
					c21.302,9.448,42.535,21.04,65.808,22.229c21.253,1.086,41.805-6.648,62.391-12.044c20.586-5.396,43.528-8.252,62.294,1.782
					c23.203,12.406,33.07,41.305,32.207,67.603c-0.863,26.298-10.174,51.472-15.876,77.158c-5.703,25.686-7.422,54.086,5.716,76.883
					c8.052,13.971,21.167,24.841,27.375,39.724c8.967,21.497,1.055,47.295-14.552,64.584c-15.607,17.29-37.611,27.407-59.733,34.697
					C286.616,455.061,206.686,437.846,134.019,439.315z"/>
				<ellipse style="fill:#EFDBB9;" cx="250" cy="438.202" rx="141.351" ry="19.422"/>
			</g>
			<g>
				<g>
					<g>
						
							<circle style="fill:none;stroke:#6CC7D9;stroke-width:1.5;stroke-linecap:round;stroke-linejoin:round;stroke-dasharray:0,8.023;" cx="329.091" cy="128.56" r="67.678"/>
					</g>
					<g>
						
							<ellipse transform="matrix(0.2401 -0.9707 0.9707 0.2401 -140.2751 292.0926)" style="fill:none;stroke:#6CC7D9;stroke-width:1.5;stroke-linecap:round;stroke-linejoin:round;stroke-dasharray:0,8.0196;" cx="116.439" cy="235.648" rx="56.175" ry="56.175"/>
					</g>
					<g>
						
							<circle style="fill:none;stroke:#6CC7D9;stroke-width:1.5;stroke-linecap:round;stroke-linejoin:round;stroke-dasharray:0,7.9582;" cx="359.883" cy="345.612" r="50.677"/>
					</g>
				</g>
				<g>
					<path style="fill:#2883DD;" d="M418.283,373.678c-1.93,0-1.934,3,0,3C420.213,376.678,420.216,373.678,418.283,373.678z"/>
					<path style="fill:#2883DD;" d="M433.697,153.344c-1.93,0-1.934,3,0,3C435.628,156.344,435.631,153.344,433.697,153.344z"/>
					<path style="fill:#2883DD;" d="M241.76,52.544c-1.93,0-1.934,3,0,3C243.691,55.544,243.694,52.544,241.76,52.544z"/>
					<path style="fill:#2883DD;" d="M89.141,119.281c-1.93,0-1.934,3,0,3C91.071,122.281,91.074,119.281,89.141,119.281z"/>
					<path style="fill:#2883DD;" d="M124.281,268.601c-1.93,0-1.934,3,0,3C126.212,271.601,126.215,268.601,124.281,268.601z"/>
					<path style="fill:#2883DD;" d="M89.141,379.695c-1.93,0-1.934,3,0,3C91.071,382.695,91.074,379.695,89.141,379.695z"/>
					<path style="fill:#2883DD;" d="M370.299,259.47c-1.93,0-1.934,3,0,3C372.23,262.47,372.233,259.47,370.299,259.47z"/>
				</g>
			</g>
		</g>
	</g>
</g>
<g id="OBJECTS">
	<g>
		<g>
			<g>
				<g>
					<path style="fill:#202D89;" d="M338.258,438.202H163.803c-8.8,0-15.933-7.134-15.933-15.934V115.422
						c0-8.8,7.134-15.933,15.933-15.933h174.455c8.8,0,15.934,7.134,15.934,15.933v306.846
						C354.192,431.068,347.058,438.202,338.258,438.202z"/>
					
						<ellipse transform="matrix(0.219 -0.9757 0.9757 0.219 -212.3007 571.7823)" style="fill:#10184C;" cx="251.031" cy="418.511" rx="11.53" ry="11.53"/>
				</g>
				<g>
					<path style="fill:#1C2863;" d="M147.87,117.448v32.764c0.307-0.14,0.612-0.281,0.909-0.438
						c5.718-3.025,9.618-9.026,9.618-15.945C158.398,126.55,154.08,120.294,147.87,117.448z"/>
					<path style="fill:#1C2863;" d="M343.638,209.999c1.27-1.237,0.569-3.393-1.185-3.648l-12.168-1.768
						c-0.697-0.101-1.299-0.539-1.611-1.17l-3.361-6.811l0,0l-0.779-1.579l-1.301-2.637c-0.687-1.391-2.508-1.565-3.478-0.522
						c-0.139,0.149-0.26,0.323-0.358,0.522l-5.442,11.026c-0.156,0.316-0.384,0.583-0.661,0.784c-0.138,0.1-0.289,0.184-0.448,0.249
						c-0.159,0.065-0.327,0.111-0.502,0.137l-12.168,1.768c-0.658,0.096-1.168,0.459-1.481,0.94c-0.209,0.321-0.33,0.695-0.35,1.077
						c-0.02,0.383,0.062,0.774,0.26,1.129c0.099,0.178,0.227,0.347,0.385,0.502l8.805,8.583c0.126,0.123,0.235,0.259,0.326,0.406
						c0.181,0.293,0.289,0.625,0.315,0.968c0.013,0.172,0.005,0.346-0.025,0.519l-1.039,6.06l-1.039,6.06
						c-0.3,1.747,1.534,3.08,3.103,2.255l10.884-5.722c0.623-0.328,1.367-0.328,1.991,0l10.884,5.722
						c1.569,0.825,3.403-0.508,3.103-2.255l-2.079-12.119c-0.119-0.694,0.111-1.402,0.615-1.893L343.638,209.999z"/>
					<path style="fill:#1C2863;" d="M246.827,112.487h-36.386c-16.941,0-30.675,13.734-30.675,30.675v0
						c0,16.941,13.734,30.675,30.675,30.675h48.376l17.927,21.104c1.818,2.14,5.121,2.14,6.939,0l17.927-21.104h48.376
						c1.428,0,2.831-0.105,4.206-0.294v-58.121c0-0.912-0.094-1.801-0.241-2.671c-1.299-0.168-2.621-0.264-3.965-0.264H246.827z"/>
					<path style="fill:#1C2863;" d="M199.212,233.485l-10.244-5.623c-1.017-0.558-1.363-1.852-0.761-2.843l6.061-9.986
						c0.835-1.375-0.179-3.131-1.788-3.094l-11.68,0.265c-1.161,0.026-2.109-0.922-2.083-2.083l0.265-11.68
						c0.036-1.609-1.719-2.623-3.094-1.788l-9.987,6.061c-0.992,0.602-2.285,0.256-2.843-0.761l-5.623-10.244
						c-0.29-0.529-0.756-0.859-1.266-0.991c-0.68-0.176-1.439,0-1.962,0.529c-0.131,0.132-0.247,0.286-0.344,0.462l-5.623,10.244
						c-0.1,0.182-0.229,0.333-0.37,0.471v65.695c0.141,0.138,0.269,0.292,0.369,0.474l5.623,10.244c0.774,1.409,2.799,1.409,3.572,0
						l5.623-10.244c0.558-1.017,1.852-1.363,2.843-0.761l9.986,6.061c1.376,0.835,3.131-0.179,3.094-1.788l-0.265-11.68
						c-0.026-1.161,0.922-2.109,2.083-2.083l11.68,0.265c1.609,0.036,2.623-1.719,1.788-3.094l-6.061-9.987
						c-0.602-0.992-0.255-2.285,0.761-2.843l10.244-5.623C200.622,236.283,200.622,234.258,199.212,233.485z"/>
					<path style="fill:#1C2863;" d="M196.601,386.83l-6.941-13.49l-0.001,0c4.728-4.984,7.527-11.157,7.527-17.843
						c0-15.699-15.426-28.568-35.051-29.834c-0.193-0.013-0.386-0.024-0.58-0.035c-0.859-0.045-1.724-0.077-2.598-0.077
						c-3.857,0-7.578,0.452-11.088,1.284v57.322c3.51,0.832,7.231,1.284,11.088,1.284c2.893,0,5.707-0.26,8.416-0.737l-0.001,0.001
						l24.613,8.123c3.398,1.121,6.445-2.444,4.808-5.625L196.601,386.83z"/>
					<path style="fill:#1C2863;" d="M354.192,278.621c-5.368-5.261-12.331-8.902-20.097-10.127l0,0c0,0-0.001,0-0.001,0
						c-0.265-0.042-0.532-0.074-0.799-0.11c-0.293-0.04-0.585-0.079-0.88-0.112c-0.255-0.028-0.51-0.053-0.766-0.076
						c-0.344-0.031-0.69-0.057-1.037-0.079c-0.208-0.013-0.415-0.028-0.624-0.037c-0.565-0.026-1.133-0.043-1.705-0.043
						c-8.305,0-15.971,2.735-22.147,7.354c-0.475,0.355-0.941,0.722-1.398,1.099c-4.113,3.395-7.481,7.661-9.82,12.515
						c-0.26,0.539-0.507,1.086-0.741,1.64c-1.873,4.428-2.909,9.297-2.909,14.408v0c0,20.443,16.573,37.016,37.016,37.016
						c0.644,0,1.283-0.017,1.919-0.049c0.101-0.005,0.199-0.017,0.299-0.023c0.535-0.032,1.069-0.069,1.597-0.123
						c0.087-0.009,0.172-0.023,0.258-0.033c0.541-0.059,1.08-0.125,1.613-0.208c0.057-0.009,0.114-0.021,0.171-0.031
						c0.562-0.089,1.121-0.188,1.674-0.303c0.017-0.003,0.033-0.008,0.049-0.011c7.055-1.469,13.369-4.952,18.326-9.812V278.621z"/>
					<path style="fill:#1C2863;" d="M295.21,417.568c0.504-0.056,1.002-0.131,1.492-0.228c0.141-0.027,0.278-0.061,0.418-0.092
						c0.39-0.087,0.775-0.185,1.155-0.297c0.163-0.047,0.326-0.093,0.486-0.145c0.394-0.128,0.781-0.272,1.162-0.425
						c0.198-0.08,0.394-0.161,0.589-0.248c0.379-0.168,0.753-0.346,1.118-0.539c5.718-3.025,9.619-9.026,9.619-15.945
						c0-8.316-5.637-15.299-13.292-17.384c0,0,0,0,0,0c-0.002,0-0.004-0.001-0.006-0.001c-0.605-0.164-1.222-0.296-1.851-0.398
						c-0.227-0.038-0.454-0.075-0.683-0.104c-0.219-0.027-0.438-0.051-0.659-0.07c-0.509-0.046-1.023-0.078-1.544-0.078
						c-3.735,0-7.205,1.135-10.083,3.08c-0.48,0.324-0.943,0.671-1.388,1.038c-1.781,1.47-3.276,3.276-4.386,5.32
						c-1.388,2.555-2.177,5.484-2.177,8.596c0,3.113,0.789,6.041,2.177,8.596c1.111,2.044,2.605,3.85,4.386,5.32
						c0.445,0.368,0.909,0.714,1.388,1.038c2.878,1.945,6.348,3.08,10.083,3.08c0.001,0,0.002,0,0.003,0
						c0.552,0,1.095-0.033,1.635-0.082C294.972,417.591,295.091,417.581,295.21,417.568z"/>
				</g>
			</g>
			<g>
				<g>
					<path style="fill:#F1F4F9;" d="M328.302,398.82H173.76c-4.4,0-7.967-3.567-7.967-7.967V126.923c0-4.4,3.567-7.967,7.967-7.967
						h154.541c4.4,0,7.967,3.567,7.967,7.967v263.931C336.268,395.254,332.702,398.82,328.302,398.82z"/>
					<g>
						<path style="fill:#C8D8F2;" d="M336.268,217.182v-11.73l-5.985-0.87c-0.697-0.101-1.299-0.539-1.611-1.17l-3.361-6.811
							l-0.779-1.579l-1.301-2.637c-0.687-1.391-2.508-1.565-3.478-0.522c-0.139,0.149-0.26,0.323-0.358,0.522l-5.442,11.026
							c-0.156,0.316-0.384,0.583-0.661,0.784c-0.138,0.1-0.289,0.184-0.448,0.249c-0.159,0.065-0.327,0.111-0.502,0.137
							l-12.168,1.768c-0.658,0.096-1.168,0.459-1.481,0.94c-0.209,0.321-0.33,0.695-0.35,1.077c-0.02,0.383,0.062,0.774,0.26,1.129
							c0.099,0.178,0.227,0.347,0.385,0.502l8.805,8.583c0.126,0.123,0.235,0.259,0.326,0.406c0.181,0.293,0.289,0.625,0.315,0.968
							c0.013,0.172,0.005,0.346-0.025,0.519l-1.039,6.06l-1.039,6.06c-0.3,1.747,1.534,3.08,3.103,2.255l10.884-5.722
							c0.623-0.328,1.367-0.328,1.991,0l10.884,5.722c1.316,0.692,2.803-0.141,3.076-1.458v-0.958l-2.051-11.959
							c-0.119-0.694,0.111-1.402,0.615-1.893L336.268,217.182z"/>
						<path style="fill:#C8D8F2;" d="M328.302,118.956H191.61c-7.205,5.613-11.844,14.365-11.844,24.206v0
							c0,16.941,13.734,30.675,30.675,30.675h48.376l17.927,21.104c1.818,2.14,5.121,2.14,6.939,0l17.927-21.104h34.659v-46.914
							C336.268,122.523,332.702,118.956,328.302,118.956z"/>
						<path style="fill:#C8D8F2;" d="M199.212,233.485l-10.244-5.623c-1.017-0.558-1.363-1.852-0.761-2.843l6.061-9.986
							c0.835-1.375-0.179-3.131-1.788-3.094l-11.68,0.265c-1.161,0.026-2.109-0.922-2.083-2.083l0.265-11.68
							c0.036-1.609-1.719-2.623-3.094-1.788l-9.987,6.061c-0.035,0.021-0.072,0.032-0.108,0.051v65.014
							c0.035,0.019,0.073,0.03,0.107,0.051l9.986,6.061c1.376,0.835,3.131-0.179,3.094-1.788l-0.265-11.68
							c-0.026-1.161,0.922-2.109,2.083-2.083l11.68,0.265c1.609,0.036,2.623-1.719,1.788-3.094l-6.061-9.987
							c-0.602-0.992-0.255-2.285,0.761-2.843l10.244-5.623C200.622,236.283,200.622,234.258,199.212,233.485z"/>
						<path style="fill:#C8D8F2;" d="M196.601,386.83l-6.941-13.49l-0.001,0c4.728-4.984,7.527-11.157,7.527-17.843
							c0-14.71-13.543-26.934-31.393-29.458v58.91c0.529-0.075,1.059-0.152,1.58-0.244l-0.001,0.001l24.613,8.123
							c3.398,1.121,6.445-2.444,4.808-5.625L196.601,386.83z"/>
						<path style="fill:#C8D8F2;" d="M336.268,268.913c-0.718-0.158-1.441-0.303-2.173-0.418l0,0c0,0-0.001,0-0.001,0
							c-0.265-0.042-0.532-0.074-0.799-0.11c-0.293-0.04-0.585-0.079-0.88-0.112c-0.255-0.028-0.51-0.053-0.766-0.076
							c-0.344-0.031-0.69-0.057-1.037-0.079c-0.208-0.013-0.415-0.028-0.624-0.037c-0.565-0.026-1.133-0.043-1.705-0.043
							c-8.305,0-15.971,2.735-22.147,7.354c-0.475,0.355-0.941,0.722-1.398,1.099c-4.113,3.395-7.481,7.661-9.82,12.515
							c-0.26,0.539-0.507,1.086-0.741,1.64c-1.873,4.428-2.909,9.297-2.909,14.408v0c0,20.443,16.573,37.016,37.016,37.016
							c0.644,0,1.283-0.017,1.919-0.049c0.101-0.005,0.199-0.017,0.299-0.023c0.535-0.032,1.069-0.069,1.597-0.123
							c0.087-0.009,0.172-0.023,0.258-0.033c0.541-0.059,1.08-0.125,1.613-0.208c0.057-0.009,0.114-0.021,0.171-0.031
							c0.562-0.089,1.121-0.188,1.674-0.303c0.017-0.003,0.033-0.008,0.049-0.011c0.135-0.028,0.268-0.063,0.403-0.093V268.913z"/>
						<path style="fill:#C8D8F2;" d="M297.951,382.264c-0.605-0.164-1.222-0.296-1.851-0.398c-0.227-0.038-0.454-0.075-0.683-0.104
							c-0.219-0.027-0.438-0.051-0.659-0.07c-0.509-0.046-1.023-0.078-1.544-0.078c-3.735,0-7.205,1.135-10.083,3.08
							c-0.48,0.324-0.943,0.671-1.388,1.038c-1.781,1.47-3.276,3.276-4.386,5.32c-1.264,2.327-2.023,4.965-2.15,7.767h36.008
							c-0.362-7.947-5.859-14.54-13.257-16.555c0,0,0,0,0,0C297.955,382.265,297.953,382.265,297.951,382.264z"/>
					</g>
				</g>
				<g>
					<g>
						<path style="fill:#C8D8F2;" d="M262.631,264.816h-66.825c-11.971,0-21.675-9.704-21.675-21.675l0,0
							c0-11.971,9.704-21.675,21.675-21.675h66.825c11.971,0,21.675,9.704,21.675,21.675l0,0
							C284.306,255.112,274.602,264.816,262.631,264.816z"/>
						<path style="fill:#B0C5E2;" d="M199.212,233.485l-10.244-5.623c-1.017-0.558-1.363-1.852-0.761-2.843l1.65-2.719
							c-9.077,2.586-15.726,10.934-15.726,20.841v0c0,5.938,2.39,11.317,6.258,15.232c0.133-0.024,0.27-0.036,0.411-0.033
							l11.68,0.265c1.609,0.036,2.623-1.719,1.788-3.094l-6.061-9.987c-0.602-0.992-0.255-2.285,0.761-2.843l10.244-5.623
							C200.622,236.283,200.622,234.258,199.212,233.485z"/>
						<g>
							<g>
								<circle style="fill:#F1F4F9;" cx="265.513" cy="243.141" r="10.854"/>
								<path style="fill:#C8D8F2;" d="M265.247,247.401l-2.901,1.525c-0.418,0.22-0.907-0.135-0.827-0.601l0.554-3.23
									c0.032-0.185-0.03-0.374-0.164-0.505l-2.347-2.288c-0.338-0.33-0.152-0.904,0.316-0.972l3.243-0.471
									c0.186-0.027,0.346-0.144,0.429-0.312l1.451-2.939c0.209-0.424,0.813-0.424,1.022,0l1.451,2.939
									c0.083,0.168,0.243,0.285,0.429,0.312l3.244,0.471c0.468,0.068,0.654,0.643,0.316,0.972l-2.347,2.288
									c-0.134,0.131-0.196,0.32-0.164,0.505l0.554,3.23c0.08,0.466-0.409,0.821-0.827,0.601l-2.901-1.525
									C265.612,247.313,265.414,247.313,265.247,247.401z"/>
							</g>
							<g>
								<path style="fill:#F1F4F9;" d="M246.8,235.648h-59.626c-1.003,0-1.817-0.813-1.817-1.817v-0.094
									c0-1.003,0.813-1.817,1.817-1.817H246.8c1.003,0,1.816,0.813,1.816,1.817v0.094
									C248.617,234.835,247.803,235.648,246.8,235.648z"/>
								<path style="fill:#F1F4F9;" d="M246.8,245.004h-59.626c-1.003,0-1.817-0.813-1.817-1.817v-0.094
									c0-1.003,0.813-1.816,1.817-1.816H246.8c1.003,0,1.816,0.813,1.816,1.816v0.094
									C248.617,244.191,247.803,245.004,246.8,245.004z"/>
								<path style="fill:#F1F4F9;" d="M246.8,254.361h-59.626c-1.003,0-1.817-0.813-1.817-1.817v-0.094
									c0-1.003,0.813-1.817,1.817-1.817H246.8c1.003,0,1.816,0.813,1.816,1.817v0.094
									C248.617,253.548,247.803,254.361,246.8,254.361z"/>
								<g>
									<path style="fill:#D6DCE5;" d="M191.308,250.634h-4.133c-1.003,0-1.816,0.813-1.816,1.817v0.094
										c0,1.003,0.813,1.817,1.816,1.817h6.395L191.308,250.634z"/>
									<path style="fill:#D6DCE5;" d="M187.174,241.277c-1.003,0-1.816,0.813-1.816,1.816v0.094c0,1.003,0.813,1.817,1.816,1.817
										h0.818c-0.244-0.886,0.129-1.859,0.976-2.324l2.556-1.403H187.174z"/>
									<path style="fill:#D6DCE5;" d="M185.358,233.738v0.094c0,1.003,0.813,1.817,1.816,1.817h13.047
										c0.151-0.814-0.177-1.706-1.009-2.163l-2.849-1.564h-9.189C186.171,231.921,185.358,232.734,185.358,233.738z"/>
								</g>
							</g>
						</g>
					</g>
					<g>
						<g>
							<path style="fill:#C8D8F2;" d="M262.631,383.464h-66.825c-11.971,0-21.675-9.704-21.675-21.675l0,0
								c0-11.971,9.704-21.675,21.675-21.675h66.825c11.971,0,21.675,9.704,21.675,21.675l0,0
								C284.306,373.76,274.602,383.464,262.631,383.464z"/>
						</g>
						<g>
							<g>
								<circle style="fill:#F1F4F9;" cx="265.513" cy="361.789" r="10.854"/>
								<path style="fill:#C8D8F2;" d="M265.247,366.049l-2.901,1.525c-0.418,0.22-0.907-0.135-0.827-0.601l0.554-3.23
									c0.032-0.185-0.03-0.374-0.164-0.505l-2.347-2.288c-0.338-0.33-0.152-0.905,0.316-0.973l3.243-0.471
									c0.186-0.027,0.346-0.144,0.429-0.312l1.451-2.939c0.209-0.424,0.813-0.424,1.022,0l1.451,2.939
									c0.083,0.168,0.243,0.285,0.429,0.312l3.244,0.471c0.468,0.068,0.654,0.643,0.316,0.973l-2.347,2.288
									c-0.134,0.131-0.196,0.32-0.164,0.505l0.554,3.23c0.08,0.466-0.409,0.821-0.827,0.601l-2.901-1.525
									C265.612,365.961,265.414,365.961,265.247,366.049z"/>
							</g>
							<g>
								<path style="fill:#F1F4F9;" d="M246.8,354.296h-59.626c-1.003,0-1.817-0.813-1.817-1.817v-0.094
									c0-1.003,0.813-1.816,1.817-1.816H246.8c1.003,0,1.816,0.813,1.816,1.816v0.094
									C248.617,353.483,247.803,354.296,246.8,354.296z"/>
								<path style="fill:#F1F4F9;" d="M246.8,363.652h-59.626c-1.003,0-1.817-0.813-1.817-1.816v-0.094
									c0-1.003,0.813-1.817,1.817-1.817H246.8c1.003,0,1.816,0.813,1.816,1.817v0.094
									C248.617,362.839,247.803,363.652,246.8,363.652z"/>
								<path style="fill:#F1F4F9;" d="M246.8,373.009h-59.626c-1.003,0-1.817-0.813-1.817-1.817v-0.094
									c0-1.003,0.813-1.816,1.817-1.816H246.8c1.003,0,1.816,0.813,1.816,1.816v0.094
									C248.617,372.196,247.803,373.009,246.8,373.009z"/>
							</g>
						</g>
					</g>
					<g>
						<g>
							<path style="fill:#C8D8F2;" d="M309.78,324.103h-66.825c-11.971,0-21.675-9.704-21.675-21.675v0
								c0-11.971,9.704-21.675,21.675-21.675h66.825c11.971,0,21.675,9.704,21.675,21.675v0
								C331.455,314.399,321.75,324.103,309.78,324.103z"/>
						</g>
						<path style="fill:#B0C5E2;" d="M331.455,302.428c0-11.971-9.704-21.675-21.675-21.675h-9.416
							c-2.162,2.482-4.001,5.254-5.446,8.251c-0.26,0.539-0.507,1.086-0.741,1.64c-1.873,4.428-2.909,9.297-2.909,14.408v0
							c0,6.968,1.928,13.485,5.276,19.05h13.236C321.75,324.103,331.455,314.399,331.455,302.428L331.455,302.428z"/>
						<g>
							<g>
								<g>
									
										<ellipse transform="matrix(0.2287 -0.9735 0.9735 0.2287 -53.2544 537.6416)" style="fill:#D6DCE5;" cx="312.661" cy="302.428" rx="10.854" ry="10.854"/>
								</g>
								<path style="fill:#B0C5E2;" d="M312.396,306.688l-2.901,1.525c-0.418,0.22-0.907-0.135-0.827-0.601l0.554-3.23
									c0.032-0.185-0.03-0.374-0.164-0.505l-2.347-2.288c-0.338-0.33-0.152-0.905,0.316-0.973l3.243-0.471
									c0.186-0.027,0.346-0.144,0.429-0.312l1.451-2.939c0.209-0.424,0.813-0.424,1.022,0l1.451,2.939
									c0.083,0.168,0.243,0.285,0.429,0.312l3.244,0.471c0.468,0.068,0.654,0.643,0.316,0.973l-2.347,2.288
									c-0.134,0.131-0.196,0.32-0.164,0.505l0.554,3.23c0.08,0.466-0.409,0.821-0.827,0.601l-2.901-1.525
									C312.761,306.6,312.562,306.6,312.396,306.688z"/>
							</g>
							<g>
								<path style="fill:#F1F4F9;" d="M293.948,294.935h-59.625c-1.003,0-1.816-0.813-1.816-1.817v-0.094
									c0-1.003,0.813-1.816,1.816-1.816h59.625c1.003,0,1.817,0.813,1.817,1.816v0.094
									C295.765,294.122,294.952,294.935,293.948,294.935z"/>
								<path style="fill:#F1F4F9;" d="M293.948,304.291h-59.625c-1.003,0-1.816-0.813-1.816-1.816v-0.094
									c0-1.003,0.813-1.817,1.816-1.817h59.625c1.003,0,1.817,0.813,1.817,1.817v0.094
									C295.765,303.478,294.952,304.291,293.948,304.291z"/>
								<path style="fill:#F1F4F9;" d="M293.948,313.648h-59.625c-1.003,0-1.816-0.813-1.816-1.817v-0.094
									c0-1.003,0.813-1.816,1.816-1.816h59.625c1.003,0,1.817,0.813,1.817,1.816v0.094
									C295.765,312.835,294.952,313.648,293.948,313.648z"/>
								<g>
									<path style="fill:#D6DCE5;" d="M293.948,309.921h-2.354c0.167,1.265,0.408,2.505,0.699,3.727h1.655
										c1.003,0,1.817-0.813,1.817-1.817v-0.094C295.765,310.734,294.952,309.921,293.948,309.921z"/>
									<path style="fill:#D6DCE5;" d="M293.948,300.564h-2.4c-0.148,1.225-0.236,2.468-0.261,3.727h2.661
										c1.003,0,1.817-0.813,1.817-1.817v-0.094C295.765,301.378,294.952,300.564,293.948,300.564z"/>
									<path style="fill:#D6DCE5;" d="M293.954,291.208c-0.489,1.212-0.914,2.455-1.275,3.727h1.269
										c1.003,0,1.817-0.813,1.817-1.817v-0.094C295.765,292.023,294.955,291.212,293.954,291.208z"/>
								</g>
							</g>
						</g>
					</g>
				</g>
			</g>
		</g>
		<g>
			<g>
				<path style="fill:#2883DD;" d="M354.986,107.487H215.441c-16.941,0-30.675,13.734-30.675,30.675v0
					c0,16.941,13.734,30.675,30.675,30.675h48.376l17.927,21.104c1.818,2.14,5.121,2.14,6.939,0l17.927-21.104h48.376
					c16.941,0,30.675-13.734,30.675-30.675v0C385.661,121.221,371.927,107.487,354.986,107.487z"/>
				<path style="fill:#1A78C6;" d="M215.441,107.487c-16.941,0-30.675,13.734-30.675,30.675v0c0,16.941,13.734,30.675,30.675,30.675
					h48.376l17.927,21.104c1.818,2.14,5.121,2.14,6.939,0l10.072-11.857c-9.039-3.694-17.842-7.946-25.734-13.655
					c-10.638-7.695-19.609-18.335-23.03-31.011c-2.297-8.511-1.716-17.957,1.836-25.932H215.441z"/>
				<g>
					<g>
						<path style="fill:#F7D408;" d="M214.511,147.543l-6.16,3.238c-0.888,0.467-1.926-0.287-1.756-1.276l1.176-6.859
							c0.067-0.393-0.063-0.793-0.348-1.072l-4.983-4.857c-0.718-0.7-0.322-1.921,0.671-2.065l6.887-1.001
							c0.394-0.057,0.735-0.305,0.911-0.662l3.08-6.241c0.444-0.9,1.727-0.9,2.171,0l3.08,6.241
							c0.176,0.357,0.517,0.605,0.911,0.662l6.887,1.001c0.993,0.144,1.389,1.364,0.671,2.065l-4.983,4.857
							c-0.285,0.278-0.415,0.679-0.348,1.072l1.176,6.859c0.17,0.989-0.868,1.743-1.756,1.276l-6.16-3.238
							C215.285,147.358,214.864,147.358,214.511,147.543z"/>
						<path style="fill:#E2BD05;" d="M214.843,140.325c-0.087-3.514,1.096-7.003,3.16-9.843l-1.842-3.732
							c-0.444-0.9-1.727-0.9-2.171,0l-3.08,6.24c-0.176,0.357-0.517,0.605-0.911,0.662l-6.887,1.001
							c-0.993,0.144-1.389,1.364-0.671,2.065l4.983,4.857c0.285,0.278,0.415,0.679,0.348,1.072l-1.176,6.859
							c-0.17,0.989,0.868,1.743,1.756,1.276l6.16-3.238c0.353-0.185,0.774-0.185,1.127,0l1.763,0.927
							C215.85,146.036,214.915,143.213,214.843,140.325z"/>
					</g>
					<g>
						<path style="fill:#F7D408;" d="M249.581,147.543l-6.16,3.238c-0.888,0.467-1.926-0.287-1.756-1.276l1.176-6.859
							c0.067-0.393-0.063-0.793-0.348-1.072l-4.983-4.857c-0.719-0.7-0.322-1.921,0.671-2.065l6.887-1.001
							c0.394-0.057,0.735-0.305,0.911-0.662l3.08-6.241c0.444-0.9,1.727-0.9,2.171,0l3.08,6.241
							c0.176,0.357,0.517,0.605,0.911,0.662l6.887,1.001c0.993,0.144,1.389,1.364,0.671,2.065l-4.983,4.857
							c-0.285,0.278-0.415,0.679-0.348,1.072l1.176,6.859c0.17,0.989-0.868,1.743-1.756,1.276l-6.16-3.238
							C250.355,147.358,249.933,147.358,249.581,147.543z"/>
						<path style="fill:#E2BD05;" d="M249.912,140.325c-0.087-3.514,1.096-7.003,3.16-9.843l-1.842-3.732
							c-0.444-0.9-1.727-0.9-2.171,0l-3.08,6.24c-0.176,0.357-0.517,0.605-0.911,0.662l-6.887,1.001
							c-0.993,0.144-1.389,1.364-0.671,2.065l4.983,4.857c0.285,0.278,0.415,0.679,0.348,1.072l-1.176,6.859
							c-0.17,0.989,0.868,1.743,1.756,1.276l6.16-3.238c0.353-0.185,0.774-0.185,1.127,0l1.763,0.927
							C250.92,146.036,249.984,143.213,249.912,140.325z"/>
					</g>
					<g>
						<path style="fill:#F7D408;" d="M284.65,147.543l-6.16,3.238c-0.888,0.467-1.926-0.287-1.756-1.276l1.176-6.859
							c0.067-0.393-0.063-0.793-0.348-1.072l-4.983-4.857c-0.719-0.7-0.322-1.921,0.671-2.065l6.887-1.001
							c0.394-0.057,0.735-0.305,0.911-0.662l3.08-6.241c0.444-0.9,1.727-0.9,2.171,0l3.08,6.241
							c0.176,0.357,0.517,0.605,0.912,0.662l6.887,1.001c0.993,0.144,1.389,1.364,0.671,2.065l-4.983,4.857
							c-0.285,0.278-0.415,0.679-0.348,1.072l1.176,6.859c0.17,0.989-0.868,1.743-1.756,1.276l-6.16-3.238
							C285.424,147.358,285.003,147.358,284.65,147.543z"/>
						<path style="fill:#E2BD05;" d="M284.981,140.325c-0.087-3.514,1.096-7.003,3.159-9.843l-1.842-3.732
							c-0.444-0.9-1.727-0.9-2.171,0l-3.08,6.24c-0.176,0.357-0.517,0.605-0.911,0.662l-6.887,1.001
							c-0.993,0.144-1.389,1.364-0.671,2.065l4.983,4.857c0.285,0.278,0.415,0.679,0.348,1.072l-1.176,6.859
							c-0.17,0.989,0.868,1.743,1.756,1.276l6.16-3.238c0.353-0.185,0.774-0.185,1.127,0l1.763,0.927
							C285.989,146.036,285.053,143.213,284.981,140.325z"/>
					</g>
					<g>
						<path style="fill:#F7D408;" d="M319.719,147.543l-6.16,3.238c-0.888,0.467-1.926-0.287-1.756-1.276l1.176-6.859
							c0.067-0.393-0.063-0.793-0.348-1.072l-4.983-4.857c-0.719-0.7-0.322-1.921,0.671-2.065l6.887-1.001
							c0.394-0.057,0.735-0.305,0.911-0.662l3.08-6.241c0.444-0.9,1.727-0.9,2.171,0l3.08,6.241
							c0.176,0.357,0.517,0.605,0.911,0.662l6.887,1.001c0.993,0.144,1.389,1.364,0.671,2.065l-4.983,4.857
							c-0.285,0.278-0.415,0.679-0.348,1.072l1.176,6.859c0.17,0.989-0.868,1.743-1.756,1.276l-6.16-3.238
							C320.493,147.358,320.072,147.358,319.719,147.543z"/>
						<path style="fill:#E2BD05;" d="M320.051,140.325c-0.087-3.514,1.096-7.003,3.159-9.843l-1.842-3.732
							c-0.444-0.9-1.727-0.9-2.171,0l-3.08,6.24c-0.176,0.357-0.517,0.605-0.911,0.662l-6.887,1.001
							c-0.993,0.144-1.389,1.364-0.671,2.065l4.983,4.857c0.285,0.278,0.415,0.679,0.348,1.072l-1.176,6.859
							c-0.17,0.989,0.868,1.743,1.756,1.276l6.16-3.238c0.353-0.185,0.774-0.185,1.127,0l1.763,0.927
							C321.058,146.036,320.122,143.213,320.051,140.325z"/>
					</g>
					<g>
						<path style="fill:#F7D408;" d="M354.788,147.543l-6.16,3.238c-0.888,0.467-1.926-0.287-1.756-1.276l1.176-6.859
							c0.067-0.393-0.063-0.793-0.348-1.072l-4.983-4.857c-0.719-0.7-0.322-1.921,0.671-2.065l6.887-1.001
							c0.394-0.057,0.735-0.305,0.911-0.662l3.08-6.241c0.444-0.9,1.727-0.9,2.171,0l3.08,6.241
							c0.176,0.357,0.517,0.605,0.911,0.662l6.887,1.001c0.993,0.144,1.389,1.364,0.671,2.065l-4.983,4.857
							c-0.285,0.278-0.415,0.679-0.348,1.072l1.176,6.859c0.17,0.989-0.868,1.743-1.756,1.276l-6.16-3.238
							C355.562,147.358,355.141,147.358,354.788,147.543z"/>
						<path style="fill:#E2BD05;" d="M355.12,140.325c-0.087-3.514,1.096-7.003,3.16-9.843l-1.842-3.732
							c-0.444-0.9-1.727-0.9-2.171,0l-3.08,6.24c-0.176,0.357-0.517,0.605-0.911,0.662l-6.887,1.001
							c-0.993,0.144-1.389,1.364-0.671,2.065l4.983,4.857c0.285,0.278,0.415,0.679,0.348,1.072l-1.176,6.859
							c-0.17,0.989,0.868,1.743,1.756,1.276l6.16-3.238c0.353-0.185,0.774-0.185,1.127,0l1.763,0.927
							C356.127,146.036,355.191,143.213,355.12,140.325z"/>
					</g>
				</g>
			</g>
			<g>
				<path style="fill:#6CC7D9;" d="M204.212,232.057l-10.244,5.623c-1.017,0.558-1.363,1.852-0.761,2.843l6.061,9.987
					c0.835,1.376-0.179,3.131-1.788,3.094l-11.68-0.265c-1.161-0.026-2.11,0.922-2.083,2.083l0.265,11.68
					c0.036,1.609-1.719,2.623-3.094,1.788l-9.986-6.061c-0.992-0.602-2.285-0.255-2.843,0.761l-5.623,10.244
					c-0.774,1.409-2.799,1.409-3.572,0l-5.623-10.244c-0.558-1.017-1.852-1.363-2.843-0.762l-9.987,6.061
					c-1.376,0.835-3.13-0.179-3.094-1.788l0.265-11.68c0.026-1.161-0.922-2.109-2.083-2.083l-11.68,0.265
					c-1.609,0.036-2.623-1.719-1.788-3.094l6.061-9.986c0.602-0.992,0.256-2.285-0.761-2.843l-10.244-5.623
					c-1.41-0.774-1.41-2.799,0-3.572l10.244-5.623c1.017-0.558,1.363-1.852,0.761-2.843l-6.061-9.987
					c-0.835-1.376,0.179-3.131,1.788-3.094l11.68,0.265c1.161,0.026,2.11-0.922,2.083-2.083l-0.265-11.679
					c-0.036-1.609,1.719-2.623,3.094-1.788l9.986,6.061c0.992,0.602,2.285,0.256,2.843-0.761l5.623-10.244
					c0.774-1.41,2.799-1.41,3.572,0l5.623,10.244c0.558,1.017,1.852,1.363,2.843,0.761l9.987-6.061
					c1.376-0.835,3.13,0.179,3.094,1.788l-0.265,11.68c-0.026,1.161,0.922,2.109,2.083,2.083l11.68-0.265
					c1.609-0.037,2.623,1.719,1.788,3.094l-6.061,9.986c-0.602,0.992-0.256,2.285,0.761,2.843l10.244,5.623
					C205.622,229.258,205.622,231.283,204.212,232.057z"/>
				<path style="fill:#4CB3C1;" d="M153.649,232.579c-0.766-14.519,3.305-29.217,11.251-41.38l-2.465-4.492
					c-0.774-1.41-2.799-1.41-3.572,0l-5.623,10.244c-0.558,1.017-1.852,1.363-2.843,0.761l-9.986-6.061
					c-1.376-0.835-3.131,0.179-3.094,1.788l0.265,11.679c0.026,1.161-0.922,2.11-2.083,2.083l-11.68-0.265
					c-1.609-0.036-2.623,1.719-1.788,3.094l6.061,9.987c0.602,0.992,0.256,2.285-0.761,2.843l-10.244,5.623
					c-1.41,0.774-1.41,2.799,0,3.572l10.244,5.623c1.017,0.558,1.363,1.852,0.761,2.843l-6.061,9.986
					c-0.835,1.376,0.179,3.131,1.788,3.094l11.68-0.265c1.161-0.026,2.109,0.922,2.083,2.083l-0.265,11.68
					c-0.036,1.609,1.718,2.623,3.094,1.788l9.987-6.061c0.992-0.602,2.285-0.255,2.843,0.762l5.623,10.244
					c0.774,1.409,2.798,1.409,3.572,0l3.272-5.96C158.606,257.481,154.312,245.156,153.649,232.579z"/>
				<g>
					<path style="fill:#E2BD05;" d="M147.263,250.579h-3.8c-1.45,0-2.625-1.175-2.625-2.625v-24.14c0-1.45,1.175-2.625,2.625-2.625
						h3.8c1.45,0,2.625,1.175,2.625,2.625v24.14C149.888,249.404,148.713,250.579,147.263,250.579z"/>
					<g>
						<path style="fill:#FFE9CC;" d="M165.564,221.406v-10.292c0-1.639-1.329-2.968-2.968-2.968l0,0
							c-1.187,0-2.26,0.708-2.728,1.799l-5.517,12.872c-0.572,1.336-1.886,2.202-3.339,2.202h-1.124v22.045l1.894,1.396
							c1.249,0.92,2.759,1.416,4.309,1.416h14.54c3.423,0,6.381-2.389,7.102-5.735l2.56-11.887c0.953-4.424-2.328-8.634-6.851-8.79
							l-6.125-0.243C166.339,223.188,165.564,222.385,165.564,221.406z"/>
						<path style="fill:#EFD5B6;" d="M153.649,232.579c-0.156-2.95-0.096-5.907,0.139-8.85c-0.679,0.804-1.688,1.29-2.776,1.29
							h-1.124v22.045l1.894,1.396c1.249,0.92,2.759,1.416,4.309,1.416h0.792C155.076,244.277,153.959,238.457,153.649,232.579z"/>
					</g>
				</g>
			</g>
			<g>
				<path style="fill:#2883DD;" d="M201.794,382.204l-7.134-13.864l-0.001,0c4.728-4.984,7.527-11.157,7.527-17.843
					c0-16.538-17.115-29.945-38.228-29.945c-21.113,0-38.228,13.407-38.228,29.945c0,16.538,17.115,29.945,38.228,29.945
					c2.893,0,5.707-0.26,8.416-0.737l0,0.001l24.612,8.123C200.384,388.951,203.431,385.386,201.794,382.204z"/>
				<path style="fill:#1A78C6;" d="M165.09,365.987c-6.482-6.839-10.345-16.511-8.828-25.811
					c1.307-8.012,6.538-14.839,13.396-19.291c-1.86-0.218-3.762-0.333-5.7-0.333c-21.113,0-38.228,13.407-38.228,29.945
					s17.115,29.945,38.228,29.945c2.893,0,5.707-0.26,8.416-0.737l-0.001,0.001l24.613,8.123c3.398,1.121,6.445-2.444,4.808-5.625
					l-0.193-0.374c-4.074-0.551-8.117-1.275-12.091-2.332C180.404,377.074,171.572,372.826,165.09,365.987z"/>
				<g>
					<g>
						<path style="fill:#FFE9CC;" d="M187.022,352.663h-46.128c-1.196,0-2.166-0.97-2.166-2.166l0,0c0-1.196,0.97-2.166,2.166-2.166
							h46.128c1.196,0,2.166,0.97,2.166,2.166l0,0C189.189,351.694,188.219,352.663,187.022,352.663z"/>
						<path style="fill:#FFE9CC;" d="M187.022,342.979h-46.128c-1.196,0-2.166-0.97-2.166-2.166l0,0c0-1.196,0.97-2.166,2.166-2.166
							h46.128c1.196,0,2.166,0.97,2.166,2.166l0,0C189.189,342.009,188.219,342.979,187.022,342.979z"/>
						<path style="fill:#FFE9CC;" d="M187.022,362.668h-46.128c-1.196,0-2.166-0.97-2.166-2.166l0,0c0-1.196,0.97-2.166,2.166-2.166
							h46.128c1.196,0,2.166,0.97,2.166,2.166l0,0C189.189,361.698,188.219,362.668,187.022,362.668z"/>
					</g>
					<g>
						<path style="fill:#EFD5B6;" d="M156.251,348.331h-15.357c-1.196,0-2.166,0.97-2.166,2.166c0,1.196,0.97,2.166,2.166,2.166
							h16.345C156.801,351.242,156.471,349.794,156.251,348.331z"/>
						<path style="fill:#EFD5B6;" d="M140.894,342.979h15.085c0.047-0.936,0.13-1.872,0.282-2.803
							c0.084-0.515,0.185-1.024,0.301-1.529h-15.669c-1.196,0-2.166,0.97-2.166,2.166
							C138.728,342.009,139.698,342.979,140.894,342.979z"/>
						<path style="fill:#EFD5B6;" d="M159.602,358.335h-18.708c-1.196,0-2.166,0.97-2.166,2.166c0,1.196,0.97,2.166,2.166,2.166
							h21.434C161.315,361.293,160.401,359.844,159.602,358.335z"/>
					</g>
				</g>
			</g>
			<g>
				<g>
					<g>
						<g>
							<circle style="fill:#2883DD;" cx="333.284" cy="300.052" r="37.016"/>
						</g>
						<path style="fill:#1A78C6;" d="M333.284,337.068c5.165,0,10.081-1.061,14.547-2.972
							c-11.342-6.891-19.753-18.749-21.741-31.919c-2.109-13.972,3.123-28.667,13.005-38.684c-1.894-0.299-3.834-0.458-5.811-0.458
							c-20.443,0-37.016,16.573-37.016,37.016C296.268,320.496,312.84,337.068,333.284,337.068z"/>
					</g>
					<g>
						<g>
							
								<ellipse transform="matrix(0.7071 -0.7071 0.7071 0.7071 -114.5525 323.5505)" style="fill:#6CC7D9;" cx="333.284" cy="300.052" rx="28.641" ry="28.641"/>
						</g>
						<path style="fill:#4CB3C1;" d="M304.642,300.052c0,15.818,12.823,28.641,28.641,28.641c2.247,0,4.43-0.267,6.528-0.756
							c-7.18-6.847-12.239-15.937-13.722-25.76c-1.604-10.628,1.048-21.668,6.755-30.756
							C317.23,271.658,304.642,284.382,304.642,300.052z"/>
					</g>
				</g>
				<g>
					<g>
						<path style="fill:#FFE9CC;" d="M326.561,314.164c-0.027,0-0.053,0-0.079-0.001c-0.764-0.022-1.486-0.358-1.995-0.928
							l-7.607-8.529c-1.021-1.146-0.921-2.902,0.224-3.924c1.145-1.022,2.901-0.921,3.924,0.224l5.648,6.333l20.585-20.585
							c1.086-1.085,2.845-1.085,3.93,0c1.085,1.086,1.085,2.845,0,3.93l-22.666,22.666
							C328.004,313.872,327.297,314.164,326.561,314.164z"/>
					</g>
					<path style="fill:#EFD5B6;" d="M327.103,306.914l-0.426,0.426l-5.648-6.333c-1.022-1.146-2.779-1.246-3.924-0.224
						c-1.145,1.022-1.246,2.778-0.224,3.924l7.607,8.529c0.509,0.571,1.23,0.906,1.995,0.928c0.026,0.001,0.053,0.001,0.079,0.001
						c0.736,0,1.443-0.292,1.965-0.814l0.619-0.619C328.326,310.845,327.646,308.899,327.103,306.914z"/>
				</g>
			</g>
			<g>
				<g>
					
						<ellipse transform="matrix(0.7071 -0.7071 0.7071 0.7071 -48.5198 140.5201)" style="fill:#2883DD;" cx="145.363" cy="128.829" rx="18.035" ry="18.035"/>
					<path style="fill:#1A78C6;" d="M145.506,137.658c-3.426-5.296-4.071-12.289-1.67-18.122c1.315-3.196,3.528-5.99,6.27-8.09
						c-1.513-0.412-3.098-0.651-4.742-0.651c-9.96,0-18.035,8.075-18.035,18.035s8.075,18.035,18.035,18.035
						c3.043,0,5.905-0.761,8.419-2.091C150.438,143.217,147.51,140.756,145.506,137.658z"/>
				</g>
				<g>
					<path style="fill:#F7D408;" d="M150.407,120.231c-3.578,0-5.044,2.921-5.044,2.921s-1.466-2.921-5.044-2.921
						c-3.578,0-5.435,3.481-5.435,6.228c0,4.352,4.744,8.052,10.479,12.256c5.735-4.203,10.479-7.904,10.479-12.256
						C155.842,123.713,153.985,120.231,150.407,120.231z"/>
					<path style="fill:#E2BD05;" d="M145.506,137.658c-3.136-4.848-3.934-11.114-2.207-16.614c-0.76-0.458-1.74-0.812-2.98-0.812
						c-3.578,0-5.435,3.481-5.435,6.228c0,4.352,4.744,8.052,10.479,12.256c0.196-0.143,0.387-0.285,0.58-0.427
						C145.795,138.079,145.645,137.872,145.506,137.658z"/>
				</g>
			</g>
			<g>
				<path style="fill:#F7D408;" d="M325.318,224.127l-10.884,5.722c-1.569,0.825-3.403-0.508-3.103-2.255l2.079-12.119
					c0.119-0.694-0.111-1.402-0.615-1.893l-8.805-8.583c-1.27-1.237-0.569-3.393,1.185-3.648l12.168-1.768
					c0.697-0.101,1.299-0.539,1.61-1.17l5.442-11.026c0.785-1.59,3.052-1.59,3.836,0l5.442,11.026
					c0.312,0.631,0.914,1.069,1.611,1.17l12.168,1.768c1.754,0.255,2.455,2.411,1.185,3.648l-8.805,8.583
					c-0.504,0.491-0.734,1.199-0.615,1.893l2.079,12.119c0.3,1.747-1.534,3.08-3.103,2.255l-10.884-5.722
					C326.686,223.799,325.941,223.799,325.318,224.127z"/>
				<path style="fill:#E2BD05;" d="M321.631,214.756c-1.203-8.519,2.394-17.349,8.681-23.155l-2.081-4.215
					c-0.785-1.59-3.051-1.59-3.836,0l-5.442,11.026c-0.311,0.631-0.914,1.069-1.61,1.17l-12.168,1.768
					c-1.754,0.255-2.455,2.411-1.185,3.648l8.805,8.583c0.504,0.491,0.734,1.199,0.615,1.893l-2.079,12.119
					c-0.3,1.747,1.534,3.08,3.103,2.255l10.679-5.614C323.344,221.34,322.108,218.134,321.631,214.756z"/>
			</g>
			<g>
				<g>
					
						<ellipse transform="matrix(0.1611 -0.9869 0.9869 0.1611 -139.3194 625.3965)" style="fill:#2883DD;" cx="298.214" cy="394.649" rx="18.035" ry="18.035"/>
					<path style="fill:#1A78C6;" d="M298.357,403.478c-3.426-5.296-4.071-12.289-1.67-18.122c1.315-3.196,3.528-5.99,6.27-8.091
						c-1.513-0.412-3.099-0.651-4.743-0.651c-9.96,0-18.035,8.074-18.035,18.035c0,9.96,8.074,18.035,18.035,18.035
						c3.043,0,5.905-0.761,8.419-2.091C303.289,409.038,300.362,406.577,298.357,403.478z"/>
				</g>
				<g>
					<path style="fill:#F7D408;" d="M303.259,386.052c-3.578,0-5.044,2.921-5.044,2.921s-1.466-2.921-5.044-2.921
						c-3.578,0-5.435,3.481-5.435,6.228c0,4.352,4.744,8.052,10.479,12.256c5.735-4.203,10.479-7.904,10.479-12.256
						C308.693,389.534,306.837,386.052,303.259,386.052z"/>
					<path style="fill:#E2BD05;" d="M298.357,403.478c-3.136-4.848-3.934-11.114-2.207-16.614c-0.76-0.458-1.74-0.812-2.98-0.812
						c-3.578,0-5.435,3.481-5.435,6.228c0,4.352,4.744,8.052,10.479,12.256c0.196-0.143,0.387-0.285,0.58-0.427
						C298.647,403.9,298.496,403.693,298.357,403.478z"/>
				</g>
			</g>
		</g>
	</g>
</g>
</svg>
